<mxfile host="app.diagrams.net" agent="Mozilla/5.0 (Macintosh; Intel Mac OS X 10_15_7) AppleWebKit/605.1.15 (KHTML, like Gecko) Version/18.0.1 Safari/605.1.15" version="24.7.17">
  <diagram name="Page-1" id="dOSW6VHDcdS2cAASUwh3">
    <mxGraphModel dx="1010" dy="568" grid="1" gridSize="10" guides="1" tooltips="1" connect="1" arrows="1" fold="1" page="1" pageScale="1" pageWidth="827" pageHeight="1169" math="0" shadow="0">
      <root>
        <mxCell id="0" />
        <mxCell id="1" parent="0" />
        <mxCell id="seeg1bBNV1r2v_DMWdt_-9" style="edgeStyle=orthogonalEdgeStyle;rounded=0;orthogonalLoop=1;jettySize=auto;html=1;exitX=0.75;exitY=0;exitDx=0;exitDy=0;entryX=0.25;entryY=0;entryDx=0;entryDy=0;" edge="1" parent="1" source="seeg1bBNV1r2v_DMWdt_-2" target="seeg1bBNV1r2v_DMWdt_-6">
          <mxGeometry relative="1" as="geometry" />
        </mxCell>
        <mxCell id="seeg1bBNV1r2v_DMWdt_-10" value="Reduce Quantity Of Item (PUT)" style="edgeLabel;html=1;align=center;verticalAlign=middle;resizable=0;points=[];" vertex="1" connectable="0" parent="seeg1bBNV1r2v_DMWdt_-9">
          <mxGeometry x="0.07" y="-1" relative="1" as="geometry">
            <mxPoint as="offset" />
          </mxGeometry>
        </mxCell>
        <mxCell id="seeg1bBNV1r2v_DMWdt_-15" style="edgeStyle=orthogonalEdgeStyle;rounded=0;orthogonalLoop=1;jettySize=auto;html=1;entryX=0;entryY=0.5;entryDx=0;entryDy=0;exitX=0.5;exitY=0;exitDx=0;exitDy=0;" edge="1" parent="1" source="seeg1bBNV1r2v_DMWdt_-2" target="seeg1bBNV1r2v_DMWdt_-14">
          <mxGeometry relative="1" as="geometry" />
        </mxCell>
        <mxCell id="seeg1bBNV1r2v_DMWdt_-16" value="Add Event To Stream" style="edgeLabel;html=1;align=center;verticalAlign=middle;resizable=0;points=[];" vertex="1" connectable="0" parent="seeg1bBNV1r2v_DMWdt_-15">
          <mxGeometry x="-0.037" y="3" relative="1" as="geometry">
            <mxPoint as="offset" />
          </mxGeometry>
        </mxCell>
        <mxCell id="seeg1bBNV1r2v_DMWdt_-2" value="Cart Service" style="rounded=1;whiteSpace=wrap;html=1;" vertex="1" parent="1">
          <mxGeometry x="480" y="555" width="120" height="60" as="geometry" />
        </mxCell>
        <mxCell id="seeg1bBNV1r2v_DMWdt_-3" value="Cart&amp;nbsp;&lt;div&gt;Repo&lt;/div&gt;" style="shape=cylinder3;whiteSpace=wrap;html=1;boundedLbl=1;backgroundOutline=1;size=15;" vertex="1" parent="1">
          <mxGeometry x="510" y="680" width="60" height="80" as="geometry" />
        </mxCell>
        <mxCell id="seeg1bBNV1r2v_DMWdt_-4" style="edgeStyle=orthogonalEdgeStyle;rounded=0;orthogonalLoop=1;jettySize=auto;html=1;exitX=0.5;exitY=1;exitDx=0;exitDy=0;entryX=0.5;entryY=0;entryDx=0;entryDy=0;entryPerimeter=0;" edge="1" parent="1" source="seeg1bBNV1r2v_DMWdt_-2" target="seeg1bBNV1r2v_DMWdt_-3">
          <mxGeometry relative="1" as="geometry">
            <Array as="points">
              <mxPoint x="540" y="660" />
              <mxPoint x="540" y="660" />
            </Array>
          </mxGeometry>
        </mxCell>
        <mxCell id="seeg1bBNV1r2v_DMWdt_-11" value="Update Cart" style="edgeLabel;html=1;align=center;verticalAlign=middle;resizable=0;points=[];" vertex="1" connectable="0" parent="seeg1bBNV1r2v_DMWdt_-4">
          <mxGeometry x="-0.0857" y="-1" relative="1" as="geometry">
            <mxPoint as="offset" />
          </mxGeometry>
        </mxCell>
        <mxCell id="seeg1bBNV1r2v_DMWdt_-6" value="Product Service" style="rounded=1;whiteSpace=wrap;html=1;" vertex="1" parent="1">
          <mxGeometry x="740" y="555" width="120" height="60" as="geometry" />
        </mxCell>
        <mxCell id="seeg1bBNV1r2v_DMWdt_-7" value="Product&amp;nbsp;&lt;div&gt;Repo&lt;/div&gt;" style="shape=cylinder3;whiteSpace=wrap;html=1;boundedLbl=1;backgroundOutline=1;size=15;" vertex="1" parent="1">
          <mxGeometry x="770" y="680" width="60" height="80" as="geometry" />
        </mxCell>
        <mxCell id="seeg1bBNV1r2v_DMWdt_-8" style="edgeStyle=orthogonalEdgeStyle;rounded=0;orthogonalLoop=1;jettySize=auto;html=1;exitX=0.5;exitY=1;exitDx=0;exitDy=0;entryX=0.5;entryY=0;entryDx=0;entryDy=0;entryPerimeter=0;" edge="1" parent="1" source="seeg1bBNV1r2v_DMWdt_-6" target="seeg1bBNV1r2v_DMWdt_-7">
          <mxGeometry relative="1" as="geometry" />
        </mxCell>
        <mxCell id="seeg1bBNV1r2v_DMWdt_-12" value="Reduce Quantity of Item" style="edgeLabel;html=1;align=center;verticalAlign=middle;resizable=0;points=[];" vertex="1" connectable="0" parent="seeg1bBNV1r2v_DMWdt_-8">
          <mxGeometry x="-0.156" y="-3" relative="1" as="geometry">
            <mxPoint as="offset" />
          </mxGeometry>
        </mxCell>
        <mxCell id="seeg1bBNV1r2v_DMWdt_-14" value="Kafka Stream" style="rounded=1;whiteSpace=wrap;html=1;" vertex="1" parent="1">
          <mxGeometry x="750" y="420" width="120" height="60" as="geometry" />
        </mxCell>
      </root>
    </mxGraphModel>
  </diagram>
</mxfile>
